<svg width="30" height="30" viewBox="0 0 50 36" fill="none" xmlns="http://www.w3.org/2000/svg">
<path d="M47.2215 20.2013H2.72149C1.36177 20.2013 0.249268 19.0881 0.249268 17.7275C0.249268 16.3669 1.36177 15.2537 2.72149 15.2537H47.2215C48.5812 15.2537 49.6937 16.3669 49.6937 17.7275C49.6937 19.0881 48.5812 20.2013 47.2215 20.2013Z" fill="black"/>
<path d="M47.2215 5.35841H2.72149C1.36177 5.35841 0.249268 4.24519 0.249268 2.88459C0.249268 1.52399 1.36177 0.410767 2.72149 0.410767H47.2215C48.5812 0.410767 49.6937 1.52399 49.6937 2.88459C49.6937 4.24519 48.5812 5.35841 47.2215 5.35841Z" fill="black"/>
<path d="M47.2215 35.0442H2.72149C1.36177 35.0442 0.249268 33.931 0.249268 32.5704C0.249268 31.2098 1.36177 30.0966 2.72149 30.0966H47.2215C48.5812 30.0966 49.6937 31.2098 49.6937 32.5704C49.6937 33.931 48.5812 35.0442 47.2215 35.0442Z" fill="black"/>
</svg>
