<svg width="23" height="23" viewBox="0 0 34 34" fill="none" xmlns="http://www.w3.org/2000/svg">
<path d="M30 12.2091V29.0281C30 29.5771 29.552 30.0221 29 30.0221H5C4.45 30.0221 4 29.5751 4 29.0281V12.2391C4 11.8831 4.442 11.5541 4.752 11.3771L16.843 4.54316C17.15 4.36816 17.59 4.36715 17.898 4.54115L29.713 11.3451C30.026 11.5211 30 11.8521 30 12.2091ZM1.256 8.78511C0.634001 9.13911 0 9.79814 0 10.5101V31.0172C0 32.6582 1.35 34.0001 3 34.0001H31C32.65 34.0001 34 32.6582 34 31.0172V10.5131C34 9.79913 33.865 9.13914 33.24 8.78614L18.326 0.261119C17.711 -0.0878808 16.894 -0.0868667 16.279 0.263133L1.256 8.78511ZM21 18.0001H19C18.448 18.0001 18 17.5521 18 17.0001V15.0001C18 14.4481 18.448 14.0001 19 14.0001H21C21.552 14.0001 22 14.4481 22 15.0001V17.0001C22 17.5521 21.552 18.0001 21 18.0001ZM21 24.0001H19C18.448 24.0001 18 23.5521 18 23.0001V21.0001C18 20.4481 18.448 20.0001 19 20.0001H21C21.552 20.0001 22 20.4481 22 21.0001V23.0001C22 23.5521 21.552 24.0001 21 24.0001ZM15 18.0001H13C12.448 18.0001 12 17.5521 12 17.0001V15.0001C12 14.4481 12.448 14.0001 13 14.0001H15C15.552 14.0001 16 14.4481 16 15.0001V17.0001C16 17.5521 15.552 18.0001 15 18.0001ZM15 24.0001H13C12.448 24.0001 12 23.5521 12 23.0001V21.0001C12 20.4481 12.448 20.0001 13 20.0001H15C15.552 20.0001 16 20.4481 16 21.0001V23.0001C16 23.5521 15.552 24.0001 15 24.0001Z" fill="#1D1D1B"/>
</svg>
