<svg width="23" height="23" viewBox="0 0 35 35" fill="none" xmlns="http://www.w3.org/2000/svg">
<path d="M27.3613 8.34805C28.4843 15.2261 22.6513 21.089 15.8063 19.961C11.6623 19.278 8.31934 15.918 7.63934 11.752C6.51734 4.87404 12.3503 -0.988955 19.1943 0.140045C23.3383 0.823045 26.6813 4.18205 27.3613 8.34805ZM34.9303 32.5L34.8783 32.31C33.6193 27.717 31.1983 23.5821 27.9223 20.2231C27.5253 19.8151 26.8503 19.829 26.4593 20.242C23.8023 23.046 19.7873 24.604 15.4323 23.906C12.7353 23.474 10.3233 22.139 8.52734 20.24C8.14034 19.83 7.46635 19.825 7.07135 20.229C3.79835 23.587 1.38034 27.721 0.121337 32.31L0.070342 32.5C-0.275658 33.762 0.698345 35 2.03635 35H32.9643C34.3023 35 35.2763 33.762 34.9303 32.5Z" fill="#1D1D1B"/>
</svg>
