<svg width="23" height="24" viewBox="0 0 34 35" fill="none" xmlns="http://www.w3.org/2000/svg">
<path d="M32 3.884H26V1C26 0.448 25.552 0 25 0H23C22.448 0 22 0.448 22 1V3.884H12V1C12 0.448 11.552 0 11 0H9C8.448 0 8 0.448 8 1V3.884H2C0.895 3.884 0 4.779 0 5.884V33C0 34.105 0.895 35 2 35H32C33.105 35 34 34.105 34 33V5.884C34 4.779 33.105 3.884 32 3.884ZM30 30C30 30.552 29.552 31 29 31H5C4.448 31 4 30.552 4 30V8.884C4 8.331 4.448 7.884 5 7.884H8V10C8 10.552 8.448 11 9 11H11C11.552 11 12 10.552 12 10V7.884H22V10C22 10.552 22.448 11 23 11H25C25.552 11 26 10.552 26 10V7.884H29C29.552 7.884 30 8.331 30 8.884V30ZM12 15H10C9.448 15 9 15.448 9 16V18C9 18.552 9.448 19 10 19H12C12.552 19 13 18.552 13 18V16C13 15.448 12.552 15 12 15ZM18 15H16C15.448 15 15 15.448 15 16V18C15 18.552 15.448 19 16 19H18C18.552 19 19 18.552 19 18V16C19 15.448 18.552 15 18 15ZM24 15H22C21.448 15 21 15.448 21 16V18C21 18.552 21.448 19 22 19H24C24.552 19 25 18.552 25 18V16C25 15.448 24.552 15 24 15ZM12 21H10C9.448 21 9 21.448 9 22V24C9 24.552 9.448 25 10 25H12C12.552 25 13 24.552 13 24V22C13 21.448 12.552 21 12 21ZM18 21H16C15.448 21 15 21.448 15 22V24C15 24.552 15.448 25 16 25H18C18.552 25 19 24.552 19 24V22C19 21.448 18.552 21 18 21ZM24 21H22C21.448 21 21 21.448 21 22V24C21 24.552 21.448 25 22 25H24C24.552 25 25 24.552 25 24V22C25 21.448 24.552 21 24 21Z" fill="#1D1D1B"/>
</svg>
