<svg width="23" height="25" viewBox="0 0 38 40" fill="none" xmlns="http://www.w3.org/2000/svg">
<path d="M29.118 24V35C29.118 35.552 28.683 36 28.147 36H4.853C4.317 36 3.88199 35.552 3.88199 35V11C3.88199 10.448 4.317 10 4.853 10H12.618C13.154 10 13.588 9.552 13.588 9V7C13.588 6.448 13.154 6 12.618 6H1.94101C0.869009 6 0 6.895 0 8V38C0 39.105 0.869009 40 1.94101 40H31.059C32.131 40 33 39.105 33 38V24C33 23.448 32.565 23 32.029 23H30.088C29.552 23 29.118 23.448 29.118 24ZM36.853 4.401L33.593 1.14502C32.066 -0.379985 29.59 -0.382013 28.06 1.14099L17.576 11.578C17.207 11.945 17 12.443 17 12.963V20.022C17 20.566 17.444 21.005 17.988 21L25.042 20.937C25.555 20.932 26.046 20.727 26.408 20.364L36.853 9.93298C38.382 8.40498 38.382 5.929 36.853 4.401ZM31.516 4.60199L33.393 6.47601C33.775 6.85701 33.775 7.47697 33.393 7.85797L25.326 15.915C24.943 16.297 24.323 16.297 23.941 15.915L22.051 14.028C21.668 13.645 21.669 13.025 22.053 12.644L30.133 4.59997C30.515 4.21997 31.134 4.21999 31.516 4.60199Z" fill="#1D1D1B"/>
</svg>
